<svg version="1.1" id="laptop" xmlns="http://www.w3.org/2000/svg" xmlns:xlink="http://www.w3.org/1999/xlink" x="0px" y="0px" width="86.06px"
	 height="59.69px" viewBox="0 0 86.06 59.69" style="enable-background:new 0 0 86.06 59.69;" xml:space="preserve">
<style type="text/css">	
	.st0, .st1, .st2{
		fill: #1d3557;
		stroke:#1d3557;
		stroke-linecap: round;
		stroke-width:2;
	}
</style>
<defs>
</defs>
<g>
	<path d="M81.21,18.05h-0.69V4.86c0-2.68-2.18-4.86-4.86-4.86H10.41C7.73,0,5.56,2.18,5.55,4.86v21.52H4.86
		C2.18,26.38,0,28.55,0,31.23v23.6c0,2.68,2.18,4.86,4.86,4.86h12.49c2.68,0,4.86-2.18,4.86-4.86v-4.86h12.1l-0.69,2.78h-3.08
		c-0.77,0-1.39,0.62-1.39,1.39v4.16c0,0.77,0.62,1.39,1.39,1.39h24.99c0.77,0,1.39-0.62,1.39-1.39v-4.16c0-0.77-0.62-1.39-1.39-1.39
		h-3.08l-0.69-2.78h6.55v4.86c0,2.68,2.18,4.86,4.86,4.86h18.05c2.68,0,4.86-2.18,4.86-4.86V22.9
		C86.06,20.22,83.89,18.05,81.21,18.05z M19.43,54.83c0,1.15-0.93,2.08-2.08,2.08H4.86c-1.15,0-2.08-0.93-2.08-2.08v-23.6
		c0-1.15,0.93-2.08,2.08-2.08h1.08l1.07,3.22c0.19,0.57,0.72,0.95,1.32,0.95h5.55c0.6,0,1.13-0.38,1.32-0.95l1.07-3.22h1.08
		c1.15,0,2.08,0.93,2.08,2.08V54.83z M8.87,29.15h4.48l-0.46,1.39H9.33L8.87,29.15z M54.14,55.53v1.39H31.93v-1.39H54.14z
		 M36.48,52.75l0.69-2.78h11.71l0.69,2.78H36.48z M58.3,47.2H22.21v-5.55H58.3V47.2z M58.3,22.9v15.96H22.21v-7.63
		c0-2.68-2.18-4.86-4.86-4.86H8.33V4.86c0-1.15,0.93-2.08,2.08-2.08h65.24c1.15,0,2.08,0.93,2.08,2.08v13.19H63.16
		C60.48,18.05,58.3,20.22,58.3,22.9z M74.42,20.82l-0.46,1.39h-3.55l-0.46-1.39H74.42z M83.29,54.83c0,1.15-0.93,2.08-2.08,2.08
		H63.16c-1.15,0-2.08-0.93-2.08-2.08V22.9c0-1.15,0.93-2.08,2.08-2.08h3.86l1.07,3.22c0.19,0.57,0.72,0.95,1.32,0.95h5.55
		c0.6,0,1.13-0.38,1.32-0.95l1.07-3.22h3.86c1.15,0,2.08,0.93,2.08,2.08V54.83z"/>
	<path d="M74.96,52.75h-5.55c-0.77,0-1.39,0.62-1.39,1.39c0,0.77,0.62,1.39,1.39,1.39h5.55c0.77,0,1.39-0.62,1.39-1.39
		C76.35,53.37,75.73,52.75,74.96,52.75z"/>
	<path d="M13.88,52.75H8.33c-0.77,0-1.39,0.62-1.39,1.39c0,0.77,0.62,1.39,1.39,1.39h5.55c0.77,0,1.39-0.62,1.39-1.39
		C15.27,53.37,14.65,52.75,13.88,52.75z"/>
	<path d="M44.42,43.03h-2.78c-0.77,0-1.39,0.62-1.39,1.39s0.62,1.39,1.39,1.39h2.78c0.77,0,1.39-0.62,1.39-1.39
		S45.19,43.03,44.42,43.03z"/>
</g>
<path d="M11.11,7.12"/>
<line id="topline" class="st0" x1="10.9" y1="8.3" x2="70.84" y2="8.3">
 	<animate attributeName="x2" begin="laptop.mouseover" end="laptop.mouseout" keyTimes="0; .5; 1" values="70.84;10.9;70.84" dur="3.8s" repeatCount="indefinite"/>
</line>
<line id="centerline" class="st1" x1="10.9" y1="13.59" x2="33.77" y2="13.59">
	<animate attributeName="x2" begin="laptop.mouseover" end="laptop.mouseout" keyTimes="0; .5; 1" values="33.59;10.9;33.59" dur="3.5s" repeatCount="indefinite" />
</line>
<line id="bottomline" class="st2" x1="10.9" y1="18.13" x2="51.34" y2="18.13">
	<animate attributeName="x2" begin="laptop.mouseover" end="laptop.mouseout" keyTimes="0; .5; 1" values="51.34;10.9;51.34" dur="2s" repeatCount="indefinite"/>
</line>
</svg>

