<svg version="1.1" fill="#FFFFFF" stroke="#ffffff" xmlns="http://www.w3.org/2000/svg" xmlns:xlink="http://www.w3.org/1999/xlink" x="0px" y="0px" preserveAspectRatio="none" viewBox="0 0 1300 97.8" xml:space="preserve">
<style type="text/css">
	.st0{opacity:0.3}
	.st1{opacity:0.5}	
</style>
<path class="st0" d="M1300,0.4L0,0.4c0,0,0,54.7,0,54.7C190.4,66,379.7,85.9,570.7,84c131.5-1.3,262.5-11.9,393.7-20.2
	c15.1-1,30.2-1.9,45.3-3.2c54.9-4.5,110-5.3,165-2.3c41.9,2.3,83.5,9.3,125.4,11.7V0.4z"/>
<path class="st1" d="M1300,0L0,0l0,22.8c177,21.4,229,75,489.1,75c107.3,0,209.6-7.7,314.3-29.1c85.7-17.5,173-26.5,260.2-33
	c18.1-1.4,236.4-16.1,236.4-12.9C1300,22.8,1300,0,1300,0z"/>
<path class="st2" d="M0,0.4l0,3.2c231.7,38.7,139.6,58.7,429.1,58.7c325,0,450-61.3,775-61.3c35.6,0,67.3,0.9,95.9,2.6V0.4L0,0.4z"
	/>
</svg>
